<mxfile modified="None" type="device">
  <diagram name="zero.drawio" id="9670a1906c93">
    <mxGraphModel dx="1600" dy="850" grid="1" gridSize="10" guides="1" tooltips="1" connect="1"
      arrows="1" fold="1" page="1" pageScale="1" pageWidth="1100" pageHeight="850" math="0"
      shadow="0">
      <root>
        <mxCell id="0" />
        <mxCell id="1" parent="0" />

      </root>
    </mxGraphModel>
  </diagram>
</mxfile>